<svg viewBox="0 0 426 425" fill="none" xmlns="http://www.w3.org/2000/svg">
<g filter="url(#filter0_d_36_941)">
<mask id="path-1-inside-1_36_941" fill="white">
<path d="M4 408.646H8.33784V381.806H4V374.117L24.6817 374.173C26.6034 374.173 28.3619 374.51 29.9571 375.186C31.5523 375.861 32.9283 376.777 34.085 377.934C35.2418 379.09 36.142 380.441 36.7857 381.986C37.4294 383.531 37.7512 385.173 37.7512 386.913C37.7512 388.948 37.392 390.632 36.6737 391.964C35.9554 393.297 34.9339 394.37 33.6093 395.184C35.0086 396.072 36.114 397.168 36.9256 398.473C37.7372 399.778 38.143 401.364 38.143 403.233C38.143 405.139 37.8118 406.888 37.1495 408.479C36.4872 410.07 35.5823 411.444 34.4349 412.601C33.2874 413.757 31.9301 414.655 30.3629 415.293C28.7957 415.931 27.1072 416.251 25.2974 416.251H4V408.646ZM17.6292 398.848V408.646H24.6817C25.2228 408.646 25.7312 408.507 26.2069 408.229C26.6827 407.952 27.0932 407.586 27.4383 407.133C27.7835 406.679 28.0587 406.152 28.2639 405.551C28.4692 404.949 28.5718 404.325 28.5718 403.677C28.5718 402.993 28.4692 402.359 28.2639 401.776C28.0587 401.193 27.7788 400.684 27.4243 400.249C27.0699 399.815 26.6547 399.472 26.179 399.222C25.7032 398.973 25.2041 398.848 24.6817 398.848H17.6292ZM17.6292 381.806V391.243H24.2899C24.8123 391.243 25.3067 391.113 25.7732 390.854C26.2396 390.595 26.6454 390.248 26.9906 389.813C27.3357 389.378 27.6109 388.888 27.8161 388.342C28.0214 387.796 28.124 387.227 28.124 386.635C28.124 386.061 28.0214 385.488 27.8161 384.914C27.6109 384.341 27.3357 383.823 26.9906 383.36C26.6454 382.897 26.2396 382.523 25.7732 382.236C25.3067 381.949 24.8123 381.806 24.2899 381.806H17.6292ZM49.6733 403.677L49.7572 404.538C49.9625 405.37 50.3123 406.101 50.8067 406.73C51.3011 407.36 51.8842 407.887 52.5558 408.312C53.2275 408.738 53.9738 409.057 54.7947 409.27C55.6156 409.483 56.4459 409.589 57.2855 409.589C58.1251 409.589 58.9227 409.538 59.6783 409.437C60.4339 409.335 61.1662 409.196 61.8752 409.02C62.5842 408.844 63.2745 408.641 63.9462 408.41C64.6178 408.178 65.2988 407.933 65.9892 407.674L69.0676 413.364C68.0041 414.012 67.0293 414.562 66.1431 415.016C65.2569 415.469 64.366 415.844 63.4704 416.14C62.5749 416.436 61.6233 416.653 60.6158 416.792C59.6083 416.931 58.4329 417 57.0896 417C54.5708 417 52.3319 416.588 50.3729 415.765C48.4139 414.941 46.7674 413.827 45.4334 412.42C44.0994 411.014 43.0826 409.367 42.3829 407.48C41.6832 405.592 41.3334 403.594 41.3334 401.485C41.3334 399.375 41.7019 397.395 42.4389 395.545C43.1758 393.694 44.216 392.08 45.5593 390.701C46.9027 389.323 48.5072 388.236 50.3729 387.44C52.2387 386.644 54.3096 386.247 56.5858 386.247C58.862 386.247 60.8817 386.621 62.6448 387.371C64.4079 388.12 65.8959 389.156 67.1086 390.479C68.3213 391.802 69.2542 393.357 69.9072 395.142C70.5602 396.928 70.9147 398.848 70.9707 400.902C71.0266 401.364 71.0593 401.822 71.0686 402.276C71.078 402.729 71.064 403.196 71.0266 403.677H49.6733ZM56.3619 393.185C55.3171 393.185 54.4262 393.31 53.6893 393.56C52.9523 393.81 52.332 394.152 51.8282 394.587C51.3245 395.022 50.9233 395.517 50.6248 396.072C50.3263 396.627 50.0931 397.21 49.9251 397.821H62.0431C61.9125 397.192 61.7259 396.599 61.4834 396.044C61.2408 395.489 60.905 394.999 60.4759 394.573C60.0468 394.148 59.501 393.81 58.8387 393.56C58.1764 393.31 57.3508 393.185 56.3619 393.185ZM54.9347 374.922H64.0581V375.616L55.4944 383.554H48.9176L54.9347 374.922ZM74.1891 373.062H86.8388V388.134C87.8463 387.653 88.8818 387.283 89.9452 387.024C91.0087 386.765 92.1002 386.635 93.2196 386.635C95.3652 386.635 97.3522 387.033 99.1806 387.829C101.009 388.624 102.586 389.707 103.91 391.076C105.235 392.445 106.275 394.046 107.031 395.878C107.786 397.71 108.164 399.653 108.164 401.707C108.164 403.779 107.796 405.731 107.059 407.563C106.322 409.395 105.291 410.991 103.966 412.351C102.642 413.711 101.065 414.784 99.2366 415.571C97.4082 416.357 95.4025 416.75 93.2196 416.75C92.0442 416.75 90.9247 416.639 89.8613 416.417C88.7978 416.195 87.7903 415.881 86.8388 415.473V416.251H78.2471V380.668H74.1891V373.062ZM92.6319 394.296C91.4005 394.296 90.2951 394.573 89.3155 395.128C88.336 395.684 87.5104 396.479 86.8388 397.515V406.12C87.4358 407.008 88.2334 407.725 89.2316 408.271C90.2298 408.817 91.3445 409.09 92.5759 409.09C93.5274 409.09 94.4323 408.918 95.2906 408.576C96.1488 408.234 96.8998 407.743 97.5434 407.105C98.1871 406.467 98.6955 405.699 99.0687 404.801C99.4418 403.904 99.6284 402.891 99.6284 401.762C99.6284 400.615 99.4418 399.579 99.0687 398.653C98.6955 397.728 98.1918 396.942 97.5574 396.294C96.9231 395.647 96.1815 395.152 95.3326 394.809C94.4836 394.467 93.5834 394.296 92.6319 394.296ZM119.946 403.677L120.03 404.538C120.235 405.37 120.585 406.101 121.08 406.73C121.574 407.36 122.157 407.887 122.829 408.312C123.501 408.738 124.247 409.057 125.068 409.27C125.889 409.483 126.719 409.589 127.559 409.589C128.398 409.589 129.196 409.538 129.951 409.437C130.707 409.335 131.439 409.196 132.148 409.02C132.857 408.844 133.548 408.641 134.219 408.41C134.891 408.178 135.572 407.933 136.262 407.674L139.341 413.364C138.277 414.012 137.302 414.562 136.416 415.016C135.53 415.469 134.639 415.844 133.743 416.14C132.848 416.436 131.896 416.653 130.889 416.792C129.881 416.931 128.706 417 127.363 417C124.844 417 122.605 416.588 120.646 415.765C118.687 414.941 117.04 413.827 115.706 412.42C114.372 411.014 113.356 409.367 112.656 407.48C111.956 405.592 111.606 403.594 111.606 401.485C111.606 399.375 111.975 397.395 112.712 395.545C113.449 393.694 114.489 392.08 115.832 390.701C117.176 389.323 118.78 388.236 120.646 387.44C122.512 386.644 124.583 386.247 126.859 386.247C129.135 386.247 131.155 386.621 132.918 387.371C134.681 388.12 136.169 389.156 137.382 390.479C138.594 391.802 139.527 393.357 140.18 395.142C140.833 396.928 141.188 398.848 141.244 400.902C141.3 401.364 141.332 401.822 141.342 402.276C141.351 402.729 141.337 403.196 141.3 403.677H119.946ZM126.635 393.185C125.59 393.185 124.699 393.31 123.962 393.56C123.225 393.81 122.605 394.152 122.101 394.587C121.597 395.022 121.196 395.517 120.898 396.072C120.599 396.627 120.366 397.21 120.198 397.821H132.316C132.186 397.192 131.999 396.599 131.756 396.044C131.514 395.489 131.178 394.999 130.749 394.573C130.32 394.148 129.774 393.81 129.112 393.56C128.449 393.31 127.624 393.185 126.635 393.185ZM125.208 374.922H134.331V375.616L125.767 383.554H119.191L125.208 374.922ZM189.324 416.251V409.034C188.167 411.051 187.038 412.531 185.937 413.475C184.837 414.419 183.591 415.177 182.201 415.751C180.811 416.325 178.95 416.602 176.618 416.584C175.461 416.565 174.305 416.431 173.148 416.181C171.991 415.931 170.872 415.58 169.79 415.127C168.707 414.673 167.649 414.127 166.613 413.489C165.578 412.851 164.64 412.115 163.8 411.282C161.73 409.21 160.12 406.809 158.973 404.08C157.825 401.35 157.252 398.376 157.252 395.156C157.252 393.176 157.494 391.261 157.979 389.411C158.464 387.56 159.145 385.83 160.022 384.22C160.899 382.61 161.958 381.144 163.199 379.821C164.439 378.498 165.82 377.365 167.341 376.421C168.861 375.477 170.498 374.746 172.252 374.228C174.006 373.71 175.844 373.451 177.766 373.451C179.967 373.451 181.879 373.742 183.503 374.325C185.126 374.908 186.87 375.995 188.736 377.587H195.005V386.968H186.357C185.499 385.654 184.692 384.701 183.936 384.109C183.181 383.517 182.36 383.027 181.474 382.638C180.587 382.25 179.351 382.055 177.766 382.055C176.198 382.055 174.743 382.407 173.4 383.11C172.056 383.813 170.895 384.762 169.915 385.955C168.936 387.149 168.166 388.555 167.607 390.174C167.047 391.793 166.767 393.454 166.767 395.156C166.767 396.84 167.019 398.441 167.523 399.958C168.026 401.475 168.791 402.84 169.817 404.052C170.844 405.264 172.038 406.194 173.4 406.841C174.762 407.489 176.217 407.813 177.766 407.813C179.743 407.813 181.469 407.239 182.943 406.092C184.417 404.945 185.48 403.381 186.133 401.401H178.045V393.796H197.692V416.251H189.324ZM203.485 401.762C203.485 399.671 203.867 397.71 204.632 395.878C205.397 394.046 206.461 392.445 207.823 391.076C209.185 389.707 210.808 388.624 212.692 387.829C214.577 387.033 216.648 386.635 218.905 386.635C221.163 386.635 223.238 387.033 225.132 387.829C227.026 388.624 228.654 389.707 230.016 391.076C231.378 392.445 232.436 394.046 233.192 395.878C233.948 397.71 234.325 399.671 234.325 401.762C234.325 403.853 233.957 405.819 233.22 407.66C232.483 409.501 231.438 411.111 230.085 412.49C228.733 413.868 227.11 414.955 225.216 415.751C223.322 416.547 221.219 416.945 218.905 416.945C216.573 416.945 214.46 416.547 212.566 415.751C210.672 414.955 209.054 413.873 207.711 412.504C206.367 411.134 205.327 409.529 204.59 407.688C203.853 405.847 203.485 403.872 203.485 401.762ZM211.853 401.762C211.853 402.854 212.039 403.858 212.412 404.774C212.785 405.69 213.294 406.481 213.938 407.147C214.581 407.813 215.328 408.331 216.176 408.701C217.025 409.071 217.935 409.256 218.905 409.256C219.894 409.256 220.813 409.076 221.662 408.715C222.511 408.354 223.248 407.841 223.873 407.174C224.498 406.508 224.987 405.717 225.342 404.801C225.696 403.885 225.874 402.872 225.874 401.762C225.874 400.615 225.696 399.579 225.342 398.653C224.987 397.728 224.498 396.942 223.873 396.294C223.248 395.647 222.511 395.152 221.662 394.809C220.813 394.467 219.894 394.305 218.905 394.323C217.935 394.305 217.025 394.467 216.176 394.809C215.328 395.152 214.581 395.647 213.938 396.294C213.294 396.942 212.785 397.728 212.412 398.653C212.039 399.579 211.853 400.615 211.853 401.762ZM256.826 387.496H270.539V408.646H274.038V416.251H261.752V413.808C260.763 414.696 259.606 415.381 258.281 415.862C256.957 416.343 255.427 416.584 253.692 416.584C252.087 416.584 250.576 416.334 249.158 415.834C247.74 415.335 246.504 414.581 245.45 413.572C244.396 412.564 243.565 411.301 242.959 409.784C242.353 408.266 242.05 406.481 242.05 404.427V395.101H238.271V387.496H251.089V404.427C251.089 406.351 251.583 407.79 252.572 408.743C253.561 409.696 254.849 410.172 256.434 410.172C257.554 410.172 258.571 409.83 259.485 409.145C260.399 408.46 261.061 407.535 261.472 406.37V395.101H256.826V387.496ZM304.878 397.96H297.014V394.99C296.249 394.99 295.55 395.041 294.915 395.142C294.281 395.244 293.726 395.415 293.25 395.656C292.774 395.896 292.373 396.229 292.047 396.655C291.72 397.081 291.492 397.608 291.361 398.237V408.646H297.266V416.251H278.347V408.646H282.685V395.101H278.403V387.496H291.305V389.522C292.126 388.874 293.049 388.374 294.076 388.023C295.102 387.671 296.221 387.496 297.434 387.496C298.665 387.496 299.934 387.505 301.24 387.523C302.546 387.542 303.759 387.551 304.878 387.551V397.96ZM309.972 387.496H323.237V389.994C324.431 389.05 325.775 388.3 327.267 387.745C328.76 387.19 330.299 386.913 331.885 386.913C334.086 386.913 335.975 387.297 337.552 388.065C339.129 388.832 340.365 390.003 341.26 391.576C341.876 390.891 342.571 390.267 343.345 389.702C344.119 389.138 344.945 388.647 345.822 388.231C346.699 387.815 347.618 387.491 348.579 387.26C349.539 387.028 350.524 386.913 351.531 386.913C355.076 386.913 357.8 387.884 359.703 389.827C361.606 391.77 362.558 394.61 362.558 398.348V408.646H366.672V416.251H353.434V399.764C353.434 398.135 353.01 396.859 352.161 395.933C351.312 395.008 350.132 394.546 348.621 394.546C347.576 394.546 346.592 394.791 345.668 395.281C344.744 395.771 343.826 396.618 342.911 397.821C342.93 398.024 342.939 398.232 342.939 398.445C342.939 398.658 342.939 398.875 342.939 399.098V408.646H347.137V416.251H333.9V399.708C333.9 398.931 333.779 398.228 333.536 397.599C333.293 396.97 332.958 396.433 332.529 395.989C332.099 395.545 331.591 395.198 331.003 394.948C330.416 394.698 329.767 394.564 329.058 394.546C328.125 394.527 327.16 394.731 326.162 395.156C325.164 395.582 324.207 396.368 323.293 397.515V408.646H327.939V416.251H309.916V408.646H314.226V395.101H309.972V387.496ZM378.062 403.677L378.146 404.538C378.351 405.37 378.701 406.101 379.195 406.73C379.69 407.36 380.273 407.887 380.944 408.312C381.616 408.738 382.362 409.057 383.183 409.27C384.004 409.483 384.834 409.589 385.674 409.589C386.514 409.589 387.311 409.538 388.067 409.437C388.823 409.335 389.555 409.196 390.264 409.02C390.973 408.844 391.663 408.641 392.335 408.41C393.006 408.178 393.687 407.933 394.378 407.674L397.456 413.364C396.393 414.012 395.418 414.562 394.532 415.016C393.645 415.469 392.755 415.844 391.859 416.14C390.963 416.436 390.012 416.653 389.004 416.792C387.997 416.931 386.822 417 385.478 417C382.959 417 380.721 416.588 378.762 415.765C376.802 414.941 375.156 413.827 373.822 412.42C372.488 411.014 371.471 409.367 370.771 407.48C370.072 405.592 369.722 403.594 369.722 401.485C369.722 399.375 370.09 397.395 370.827 395.545C371.564 393.694 372.605 392.08 373.948 390.701C375.291 389.323 376.896 388.236 378.762 387.44C380.627 386.644 382.698 386.247 384.974 386.247C387.251 386.247 389.27 386.621 391.033 387.371C392.797 388.12 394.284 389.156 395.497 390.479C396.71 391.802 397.643 393.357 398.296 395.142C398.949 396.928 399.303 398.848 399.359 400.902C399.415 401.364 399.448 401.822 399.457 402.276C399.467 402.729 399.453 403.196 399.415 403.677H378.062ZM384.751 393.185C383.706 393.185 382.815 393.31 382.078 393.56C381.341 393.81 380.721 394.152 380.217 394.587C379.713 395.022 379.312 395.517 379.013 396.072C378.715 396.627 378.482 397.21 378.314 397.821H390.432C390.301 397.192 390.115 396.599 389.872 396.044C389.629 395.489 389.294 394.999 388.865 394.573C388.435 394.148 387.89 393.81 387.227 393.56C386.565 393.31 385.739 393.185 384.751 393.185ZM414.948 387.496H420.741V394.768H414.892L414.836 406.925C414.836 407.628 414.892 408.197 415.003 408.632C415.115 409.066 415.279 409.413 415.493 409.673C415.708 409.932 415.964 410.107 416.263 410.2C416.561 410.292 416.907 410.339 417.298 410.339C418.007 410.339 418.632 410.269 419.173 410.13C419.714 409.992 420.256 409.83 420.797 409.645L422 415.002C421.048 415.594 419.99 416.066 418.824 416.417C417.657 416.769 416.272 416.945 414.668 416.945C413.53 416.945 412.443 416.75 411.407 416.362C410.372 415.973 409.462 415.386 408.679 414.599C407.895 413.813 407.27 412.827 406.804 411.643C406.337 410.459 406.113 409.08 406.132 407.508L406.216 394.768H402.046V387.496H406.244L406.3 380.612L415.003 376.504L414.948 387.496Z"/>
</mask>
<path d="M4 408.646H8.33784V381.806H4V374.117L24.6817 374.173C26.6034 374.173 28.3619 374.51 29.9571 375.186C31.5523 375.861 32.9283 376.777 34.085 377.934C35.2418 379.09 36.142 380.441 36.7857 381.986C37.4294 383.531 37.7512 385.173 37.7512 386.913C37.7512 388.948 37.392 390.632 36.6737 391.964C35.9554 393.297 34.9339 394.37 33.6093 395.184C35.0086 396.072 36.114 397.168 36.9256 398.473C37.7372 399.778 38.143 401.364 38.143 403.233C38.143 405.139 37.8118 406.888 37.1495 408.479C36.4872 410.07 35.5823 411.444 34.4349 412.601C33.2874 413.757 31.9301 414.655 30.3629 415.293C28.7957 415.931 27.1072 416.251 25.2974 416.251H4V408.646ZM17.6292 398.848V408.646H24.6817C25.2228 408.646 25.7312 408.507 26.2069 408.229C26.6827 407.952 27.0932 407.586 27.4383 407.133C27.7835 406.679 28.0587 406.152 28.2639 405.551C28.4692 404.949 28.5718 404.325 28.5718 403.677C28.5718 402.993 28.4692 402.359 28.2639 401.776C28.0587 401.193 27.7788 400.684 27.4243 400.249C27.0699 399.815 26.6547 399.472 26.179 399.222C25.7032 398.973 25.2041 398.848 24.6817 398.848H17.6292ZM17.6292 381.806V391.243H24.2899C24.8123 391.243 25.3067 391.113 25.7732 390.854C26.2396 390.595 26.6454 390.248 26.9906 389.813C27.3357 389.378 27.6109 388.888 27.8161 388.342C28.0214 387.796 28.124 387.227 28.124 386.635C28.124 386.061 28.0214 385.488 27.8161 384.914C27.6109 384.341 27.3357 383.823 26.9906 383.36C26.6454 382.897 26.2396 382.523 25.7732 382.236C25.3067 381.949 24.8123 381.806 24.2899 381.806H17.6292ZM49.6733 403.677L49.7572 404.538C49.9625 405.37 50.3123 406.101 50.8067 406.73C51.3011 407.36 51.8842 407.887 52.5558 408.312C53.2275 408.738 53.9738 409.057 54.7947 409.27C55.6156 409.483 56.4459 409.589 57.2855 409.589C58.1251 409.589 58.9227 409.538 59.6783 409.437C60.4339 409.335 61.1662 409.196 61.8752 409.02C62.5842 408.844 63.2745 408.641 63.9462 408.41C64.6178 408.178 65.2988 407.933 65.9892 407.674L69.0676 413.364C68.0041 414.012 67.0293 414.562 66.1431 415.016C65.2569 415.469 64.366 415.844 63.4704 416.14C62.5749 416.436 61.6233 416.653 60.6158 416.792C59.6083 416.931 58.4329 417 57.0896 417C54.5708 417 52.3319 416.588 50.3729 415.765C48.4139 414.941 46.7674 413.827 45.4334 412.42C44.0994 411.014 43.0826 409.367 42.3829 407.48C41.6832 405.592 41.3334 403.594 41.3334 401.485C41.3334 399.375 41.7019 397.395 42.4389 395.545C43.1758 393.694 44.216 392.08 45.5593 390.701C46.9027 389.323 48.5072 388.236 50.3729 387.44C52.2387 386.644 54.3096 386.247 56.5858 386.247C58.862 386.247 60.8817 386.621 62.6448 387.371C64.4079 388.12 65.8959 389.156 67.1086 390.479C68.3213 391.802 69.2542 393.357 69.9072 395.142C70.5602 396.928 70.9147 398.848 70.9707 400.902C71.0266 401.364 71.0593 401.822 71.0686 402.276C71.078 402.729 71.064 403.196 71.0266 403.677H49.6733ZM56.3619 393.185C55.3171 393.185 54.4262 393.31 53.6893 393.56C52.9523 393.81 52.332 394.152 51.8282 394.587C51.3245 395.022 50.9233 395.517 50.6248 396.072C50.3263 396.627 50.0931 397.21 49.9251 397.821H62.0431C61.9125 397.192 61.7259 396.599 61.4834 396.044C61.2408 395.489 60.905 394.999 60.4759 394.573C60.0468 394.148 59.501 393.81 58.8387 393.56C58.1764 393.31 57.3508 393.185 56.3619 393.185ZM54.9347 374.922H64.0581V375.616L55.4944 383.554H48.9176L54.9347 374.922ZM74.1891 373.062H86.8388V388.134C87.8463 387.653 88.8818 387.283 89.9452 387.024C91.0087 386.765 92.1002 386.635 93.2196 386.635C95.3652 386.635 97.3522 387.033 99.1806 387.829C101.009 388.624 102.586 389.707 103.91 391.076C105.235 392.445 106.275 394.046 107.031 395.878C107.786 397.71 108.164 399.653 108.164 401.707C108.164 403.779 107.796 405.731 107.059 407.563C106.322 409.395 105.291 410.991 103.966 412.351C102.642 413.711 101.065 414.784 99.2366 415.571C97.4082 416.357 95.4025 416.75 93.2196 416.75C92.0442 416.75 90.9247 416.639 89.8613 416.417C88.7978 416.195 87.7903 415.881 86.8388 415.473V416.251H78.2471V380.668H74.1891V373.062ZM92.6319 394.296C91.4005 394.296 90.2951 394.573 89.3155 395.128C88.336 395.684 87.5104 396.479 86.8388 397.515V406.12C87.4358 407.008 88.2334 407.725 89.2316 408.271C90.2298 408.817 91.3445 409.09 92.5759 409.09C93.5274 409.09 94.4323 408.918 95.2906 408.576C96.1488 408.234 96.8998 407.743 97.5434 407.105C98.1871 406.467 98.6955 405.699 99.0687 404.801C99.4418 403.904 99.6284 402.891 99.6284 401.762C99.6284 400.615 99.4418 399.579 99.0687 398.653C98.6955 397.728 98.1918 396.942 97.5574 396.294C96.9231 395.647 96.1815 395.152 95.3326 394.809C94.4836 394.467 93.5834 394.296 92.6319 394.296ZM119.946 403.677L120.03 404.538C120.235 405.37 120.585 406.101 121.08 406.73C121.574 407.36 122.157 407.887 122.829 408.312C123.501 408.738 124.247 409.057 125.068 409.27C125.889 409.483 126.719 409.589 127.559 409.589C128.398 409.589 129.196 409.538 129.951 409.437C130.707 409.335 131.439 409.196 132.148 409.02C132.857 408.844 133.548 408.641 134.219 408.41C134.891 408.178 135.572 407.933 136.262 407.674L139.341 413.364C138.277 414.012 137.302 414.562 136.416 415.016C135.53 415.469 134.639 415.844 133.743 416.14C132.848 416.436 131.896 416.653 130.889 416.792C129.881 416.931 128.706 417 127.363 417C124.844 417 122.605 416.588 120.646 415.765C118.687 414.941 117.04 413.827 115.706 412.42C114.372 411.014 113.356 409.367 112.656 407.48C111.956 405.592 111.606 403.594 111.606 401.485C111.606 399.375 111.975 397.395 112.712 395.545C113.449 393.694 114.489 392.08 115.832 390.701C117.176 389.323 118.78 388.236 120.646 387.44C122.512 386.644 124.583 386.247 126.859 386.247C129.135 386.247 131.155 386.621 132.918 387.371C134.681 388.12 136.169 389.156 137.382 390.479C138.594 391.802 139.527 393.357 140.18 395.142C140.833 396.928 141.188 398.848 141.244 400.902C141.3 401.364 141.332 401.822 141.342 402.276C141.351 402.729 141.337 403.196 141.3 403.677H119.946ZM126.635 393.185C125.59 393.185 124.699 393.31 123.962 393.56C123.225 393.81 122.605 394.152 122.101 394.587C121.597 395.022 121.196 395.517 120.898 396.072C120.599 396.627 120.366 397.21 120.198 397.821H132.316C132.186 397.192 131.999 396.599 131.756 396.044C131.514 395.489 131.178 394.999 130.749 394.573C130.32 394.148 129.774 393.81 129.112 393.56C128.449 393.31 127.624 393.185 126.635 393.185ZM125.208 374.922H134.331V375.616L125.767 383.554H119.191L125.208 374.922ZM189.324 416.251V409.034C188.167 411.051 187.038 412.531 185.937 413.475C184.837 414.419 183.591 415.177 182.201 415.751C180.811 416.325 178.95 416.602 176.618 416.584C175.461 416.565 174.305 416.431 173.148 416.181C171.991 415.931 170.872 415.58 169.79 415.127C168.707 414.673 167.649 414.127 166.613 413.489C165.578 412.851 164.64 412.115 163.8 411.282C161.73 409.21 160.12 406.809 158.973 404.08C157.825 401.35 157.252 398.376 157.252 395.156C157.252 393.176 157.494 391.261 157.979 389.411C158.464 387.56 159.145 385.83 160.022 384.22C160.899 382.61 161.958 381.144 163.199 379.821C164.439 378.498 165.82 377.365 167.341 376.421C168.861 375.477 170.498 374.746 172.252 374.228C174.006 373.71 175.844 373.451 177.766 373.451C179.967 373.451 181.879 373.742 183.503 374.325C185.126 374.908 186.87 375.995 188.736 377.587H195.005V386.968H186.357C185.499 385.654 184.692 384.701 183.936 384.109C183.181 383.517 182.36 383.027 181.474 382.638C180.587 382.25 179.351 382.055 177.766 382.055C176.198 382.055 174.743 382.407 173.4 383.11C172.056 383.813 170.895 384.762 169.915 385.955C168.936 387.149 168.166 388.555 167.607 390.174C167.047 391.793 166.767 393.454 166.767 395.156C166.767 396.84 167.019 398.441 167.523 399.958C168.026 401.475 168.791 402.84 169.817 404.052C170.844 405.264 172.038 406.194 173.4 406.841C174.762 407.489 176.217 407.813 177.766 407.813C179.743 407.813 181.469 407.239 182.943 406.092C184.417 404.945 185.48 403.381 186.133 401.401H178.045V393.796H197.692V416.251H189.324ZM203.485 401.762C203.485 399.671 203.867 397.71 204.632 395.878C205.397 394.046 206.461 392.445 207.823 391.076C209.185 389.707 210.808 388.624 212.692 387.829C214.577 387.033 216.648 386.635 218.905 386.635C221.163 386.635 223.238 387.033 225.132 387.829C227.026 388.624 228.654 389.707 230.016 391.076C231.378 392.445 232.436 394.046 233.192 395.878C233.948 397.71 234.325 399.671 234.325 401.762C234.325 403.853 233.957 405.819 233.22 407.66C232.483 409.501 231.438 411.111 230.085 412.49C228.733 413.868 227.11 414.955 225.216 415.751C223.322 416.547 221.219 416.945 218.905 416.945C216.573 416.945 214.46 416.547 212.566 415.751C210.672 414.955 209.054 413.873 207.711 412.504C206.367 411.134 205.327 409.529 204.59 407.688C203.853 405.847 203.485 403.872 203.485 401.762ZM211.853 401.762C211.853 402.854 212.039 403.858 212.412 404.774C212.785 405.69 213.294 406.481 213.938 407.147C214.581 407.813 215.328 408.331 216.176 408.701C217.025 409.071 217.935 409.256 218.905 409.256C219.894 409.256 220.813 409.076 221.662 408.715C222.511 408.354 223.248 407.841 223.873 407.174C224.498 406.508 224.987 405.717 225.342 404.801C225.696 403.885 225.874 402.872 225.874 401.762C225.874 400.615 225.696 399.579 225.342 398.653C224.987 397.728 224.498 396.942 223.873 396.294C223.248 395.647 222.511 395.152 221.662 394.809C220.813 394.467 219.894 394.305 218.905 394.323C217.935 394.305 217.025 394.467 216.176 394.809C215.328 395.152 214.581 395.647 213.938 396.294C213.294 396.942 212.785 397.728 212.412 398.653C212.039 399.579 211.853 400.615 211.853 401.762ZM256.826 387.496H270.539V408.646H274.038V416.251H261.752V413.808C260.763 414.696 259.606 415.381 258.281 415.862C256.957 416.343 255.427 416.584 253.692 416.584C252.087 416.584 250.576 416.334 249.158 415.834C247.74 415.335 246.504 414.581 245.45 413.572C244.396 412.564 243.565 411.301 242.959 409.784C242.353 408.266 242.05 406.481 242.05 404.427V395.101H238.271V387.496H251.089V404.427C251.089 406.351 251.583 407.79 252.572 408.743C253.561 409.696 254.849 410.172 256.434 410.172C257.554 410.172 258.571 409.83 259.485 409.145C260.399 408.46 261.061 407.535 261.472 406.37V395.101H256.826V387.496ZM304.878 397.96H297.014V394.99C296.249 394.99 295.55 395.041 294.915 395.142C294.281 395.244 293.726 395.415 293.25 395.656C292.774 395.896 292.373 396.229 292.047 396.655C291.72 397.081 291.492 397.608 291.361 398.237V408.646H297.266V416.251H278.347V408.646H282.685V395.101H278.403V387.496H291.305V389.522C292.126 388.874 293.049 388.374 294.076 388.023C295.102 387.671 296.221 387.496 297.434 387.496C298.665 387.496 299.934 387.505 301.24 387.523C302.546 387.542 303.759 387.551 304.878 387.551V397.96ZM309.972 387.496H323.237V389.994C324.431 389.05 325.775 388.3 327.267 387.745C328.76 387.19 330.299 386.913 331.885 386.913C334.086 386.913 335.975 387.297 337.552 388.065C339.129 388.832 340.365 390.003 341.26 391.576C341.876 390.891 342.571 390.267 343.345 389.702C344.119 389.138 344.945 388.647 345.822 388.231C346.699 387.815 347.618 387.491 348.579 387.26C349.539 387.028 350.524 386.913 351.531 386.913C355.076 386.913 357.8 387.884 359.703 389.827C361.606 391.77 362.558 394.61 362.558 398.348V408.646H366.672V416.251H353.434V399.764C353.434 398.135 353.01 396.859 352.161 395.933C351.312 395.008 350.132 394.546 348.621 394.546C347.576 394.546 346.592 394.791 345.668 395.281C344.744 395.771 343.826 396.618 342.911 397.821C342.93 398.024 342.939 398.232 342.939 398.445C342.939 398.658 342.939 398.875 342.939 399.098V408.646H347.137V416.251H333.9V399.708C333.9 398.931 333.779 398.228 333.536 397.599C333.293 396.97 332.958 396.433 332.529 395.989C332.099 395.545 331.591 395.198 331.003 394.948C330.416 394.698 329.767 394.564 329.058 394.546C328.125 394.527 327.16 394.731 326.162 395.156C325.164 395.582 324.207 396.368 323.293 397.515V408.646H327.939V416.251H309.916V408.646H314.226V395.101H309.972V387.496ZM378.062 403.677L378.146 404.538C378.351 405.37 378.701 406.101 379.195 406.73C379.69 407.36 380.273 407.887 380.944 408.312C381.616 408.738 382.362 409.057 383.183 409.27C384.004 409.483 384.834 409.589 385.674 409.589C386.514 409.589 387.311 409.538 388.067 409.437C388.823 409.335 389.555 409.196 390.264 409.02C390.973 408.844 391.663 408.641 392.335 408.41C393.006 408.178 393.687 407.933 394.378 407.674L397.456 413.364C396.393 414.012 395.418 414.562 394.532 415.016C393.645 415.469 392.755 415.844 391.859 416.14C390.963 416.436 390.012 416.653 389.004 416.792C387.997 416.931 386.822 417 385.478 417C382.959 417 380.721 416.588 378.762 415.765C376.802 414.941 375.156 413.827 373.822 412.42C372.488 411.014 371.471 409.367 370.771 407.48C370.072 405.592 369.722 403.594 369.722 401.485C369.722 399.375 370.09 397.395 370.827 395.545C371.564 393.694 372.605 392.08 373.948 390.701C375.291 389.323 376.896 388.236 378.762 387.44C380.627 386.644 382.698 386.247 384.974 386.247C387.251 386.247 389.27 386.621 391.033 387.371C392.797 388.12 394.284 389.156 395.497 390.479C396.71 391.802 397.643 393.357 398.296 395.142C398.949 396.928 399.303 398.848 399.359 400.902C399.415 401.364 399.448 401.822 399.457 402.276C399.467 402.729 399.453 403.196 399.415 403.677H378.062ZM384.751 393.185C383.706 393.185 382.815 393.31 382.078 393.56C381.341 393.81 380.721 394.152 380.217 394.587C379.713 395.022 379.312 395.517 379.013 396.072C378.715 396.627 378.482 397.21 378.314 397.821H390.432C390.301 397.192 390.115 396.599 389.872 396.044C389.629 395.489 389.294 394.999 388.865 394.573C388.435 394.148 387.89 393.81 387.227 393.56C386.565 393.31 385.739 393.185 384.751 393.185ZM414.948 387.496H420.741V394.768H414.892L414.836 406.925C414.836 407.628 414.892 408.197 415.003 408.632C415.115 409.066 415.279 409.413 415.493 409.673C415.708 409.932 415.964 410.107 416.263 410.2C416.561 410.292 416.907 410.339 417.298 410.339C418.007 410.339 418.632 410.269 419.173 410.13C419.714 409.992 420.256 409.83 420.797 409.645L422 415.002C421.048 415.594 419.99 416.066 418.824 416.417C417.657 416.769 416.272 416.945 414.668 416.945C413.53 416.945 412.443 416.75 411.407 416.362C410.372 415.973 409.462 415.386 408.679 414.599C407.895 413.813 407.27 412.827 406.804 411.643C406.337 410.459 406.113 409.08 406.132 407.508L406.216 394.768H402.046V387.496H406.244L406.3 380.612L415.003 376.504L414.948 387.496Z" fill="#173054"/>
<path d="M4 408.646H8.33784V381.806H4V374.117L24.6817 374.173C26.6034 374.173 28.3619 374.51 29.9571 375.186C31.5523 375.861 32.9283 376.777 34.085 377.934C35.2418 379.09 36.142 380.441 36.7857 381.986C37.4294 383.531 37.7512 385.173 37.7512 386.913C37.7512 388.948 37.392 390.632 36.6737 391.964C35.9554 393.297 34.9339 394.37 33.6093 395.184C35.0086 396.072 36.114 397.168 36.9256 398.473C37.7372 399.778 38.143 401.364 38.143 403.233C38.143 405.139 37.8118 406.888 37.1495 408.479C36.4872 410.07 35.5823 411.444 34.4349 412.601C33.2874 413.757 31.9301 414.655 30.3629 415.293C28.7957 415.931 27.1072 416.251 25.2974 416.251H4V408.646ZM17.6292 398.848V408.646H24.6817C25.2228 408.646 25.7312 408.507 26.2069 408.229C26.6827 407.952 27.0932 407.586 27.4383 407.133C27.7835 406.679 28.0587 406.152 28.2639 405.551C28.4692 404.949 28.5718 404.325 28.5718 403.677C28.5718 402.993 28.4692 402.359 28.2639 401.776C28.0587 401.193 27.7788 400.684 27.4243 400.249C27.0699 399.815 26.6547 399.472 26.179 399.222C25.7032 398.973 25.2041 398.848 24.6817 398.848H17.6292ZM17.6292 381.806V391.243H24.2899C24.8123 391.243 25.3067 391.113 25.7732 390.854C26.2396 390.595 26.6454 390.248 26.9906 389.813C27.3357 389.378 27.6109 388.888 27.8161 388.342C28.0214 387.796 28.124 387.227 28.124 386.635C28.124 386.061 28.0214 385.488 27.8161 384.914C27.6109 384.341 27.3357 383.823 26.9906 383.36C26.6454 382.897 26.2396 382.523 25.7732 382.236C25.3067 381.949 24.8123 381.806 24.2899 381.806H17.6292ZM49.6733 403.677L49.7572 404.538C49.9625 405.37 50.3123 406.101 50.8067 406.73C51.3011 407.36 51.8842 407.887 52.5558 408.312C53.2275 408.738 53.9738 409.057 54.7947 409.27C55.6156 409.483 56.4459 409.589 57.2855 409.589C58.1251 409.589 58.9227 409.538 59.6783 409.437C60.4339 409.335 61.1662 409.196 61.8752 409.02C62.5842 408.844 63.2745 408.641 63.9462 408.41C64.6178 408.178 65.2988 407.933 65.9892 407.674L69.0676 413.364C68.0041 414.012 67.0293 414.562 66.1431 415.016C65.2569 415.469 64.366 415.844 63.4704 416.14C62.5749 416.436 61.6233 416.653 60.6158 416.792C59.6083 416.931 58.4329 417 57.0896 417C54.5708 417 52.3319 416.588 50.3729 415.765C48.4139 414.941 46.7674 413.827 45.4334 412.42C44.0994 411.014 43.0826 409.367 42.3829 407.48C41.6832 405.592 41.3334 403.594 41.3334 401.485C41.3334 399.375 41.7019 397.395 42.4389 395.545C43.1758 393.694 44.216 392.08 45.5593 390.701C46.9027 389.323 48.5072 388.236 50.3729 387.44C52.2387 386.644 54.3096 386.247 56.5858 386.247C58.862 386.247 60.8817 386.621 62.6448 387.371C64.4079 388.12 65.8959 389.156 67.1086 390.479C68.3213 391.802 69.2542 393.357 69.9072 395.142C70.5602 396.928 70.9147 398.848 70.9707 400.902C71.0266 401.364 71.0593 401.822 71.0686 402.276C71.078 402.729 71.064 403.196 71.0266 403.677H49.6733ZM56.3619 393.185C55.3171 393.185 54.4262 393.31 53.6893 393.56C52.9523 393.81 52.332 394.152 51.8282 394.587C51.3245 395.022 50.9233 395.517 50.6248 396.072C50.3263 396.627 50.0931 397.21 49.9251 397.821H62.0431C61.9125 397.192 61.7259 396.599 61.4834 396.044C61.2408 395.489 60.905 394.999 60.4759 394.573C60.0468 394.148 59.501 393.81 58.8387 393.56C58.1764 393.31 57.3508 393.185 56.3619 393.185ZM54.9347 374.922H64.0581V375.616L55.4944 383.554H48.9176L54.9347 374.922ZM74.1891 373.062H86.8388V388.134C87.8463 387.653 88.8818 387.283 89.9452 387.024C91.0087 386.765 92.1002 386.635 93.2196 386.635C95.3652 386.635 97.3522 387.033 99.1806 387.829C101.009 388.624 102.586 389.707 103.91 391.076C105.235 392.445 106.275 394.046 107.031 395.878C107.786 397.71 108.164 399.653 108.164 401.707C108.164 403.779 107.796 405.731 107.059 407.563C106.322 409.395 105.291 410.991 103.966 412.351C102.642 413.711 101.065 414.784 99.2366 415.571C97.4082 416.357 95.4025 416.75 93.2196 416.75C92.0442 416.75 90.9247 416.639 89.8613 416.417C88.7978 416.195 87.7903 415.881 86.8388 415.473V416.251H78.2471V380.668H74.1891V373.062ZM92.6319 394.296C91.4005 394.296 90.2951 394.573 89.3155 395.128C88.336 395.684 87.5104 396.479 86.8388 397.515V406.12C87.4358 407.008 88.2334 407.725 89.2316 408.271C90.2298 408.817 91.3445 409.09 92.5759 409.09C93.5274 409.09 94.4323 408.918 95.2906 408.576C96.1488 408.234 96.8998 407.743 97.5434 407.105C98.1871 406.467 98.6955 405.699 99.0687 404.801C99.4418 403.904 99.6284 402.891 99.6284 401.762C99.6284 400.615 99.4418 399.579 99.0687 398.653C98.6955 397.728 98.1918 396.942 97.5574 396.294C96.9231 395.647 96.1815 395.152 95.3326 394.809C94.4836 394.467 93.5834 394.296 92.6319 394.296ZM119.946 403.677L120.03 404.538C120.235 405.37 120.585 406.101 121.08 406.73C121.574 407.36 122.157 407.887 122.829 408.312C123.501 408.738 124.247 409.057 125.068 409.27C125.889 409.483 126.719 409.589 127.559 409.589C128.398 409.589 129.196 409.538 129.951 409.437C130.707 409.335 131.439 409.196 132.148 409.02C132.857 408.844 133.548 408.641 134.219 408.41C134.891 408.178 135.572 407.933 136.262 407.674L139.341 413.364C138.277 414.012 137.302 414.562 136.416 415.016C135.53 415.469 134.639 415.844 133.743 416.14C132.848 416.436 131.896 416.653 130.889 416.792C129.881 416.931 128.706 417 127.363 417C124.844 417 122.605 416.588 120.646 415.765C118.687 414.941 117.04 413.827 115.706 412.42C114.372 411.014 113.356 409.367 112.656 407.48C111.956 405.592 111.606 403.594 111.606 401.485C111.606 399.375 111.975 397.395 112.712 395.545C113.449 393.694 114.489 392.08 115.832 390.701C117.176 389.323 118.78 388.236 120.646 387.44C122.512 386.644 124.583 386.247 126.859 386.247C129.135 386.247 131.155 386.621 132.918 387.371C134.681 388.12 136.169 389.156 137.382 390.479C138.594 391.802 139.527 393.357 140.18 395.142C140.833 396.928 141.188 398.848 141.244 400.902C141.3 401.364 141.332 401.822 141.342 402.276C141.351 402.729 141.337 403.196 141.3 403.677H119.946ZM126.635 393.185C125.59 393.185 124.699 393.31 123.962 393.56C123.225 393.81 122.605 394.152 122.101 394.587C121.597 395.022 121.196 395.517 120.898 396.072C120.599 396.627 120.366 397.21 120.198 397.821H132.316C132.186 397.192 131.999 396.599 131.756 396.044C131.514 395.489 131.178 394.999 130.749 394.573C130.32 394.148 129.774 393.81 129.112 393.56C128.449 393.31 127.624 393.185 126.635 393.185ZM125.208 374.922H134.331V375.616L125.767 383.554H119.191L125.208 374.922ZM189.324 416.251V409.034C188.167 411.051 187.038 412.531 185.937 413.475C184.837 414.419 183.591 415.177 182.201 415.751C180.811 416.325 178.95 416.602 176.618 416.584C175.461 416.565 174.305 416.431 173.148 416.181C171.991 415.931 170.872 415.58 169.79 415.127C168.707 414.673 167.649 414.127 166.613 413.489C165.578 412.851 164.64 412.115 163.8 411.282C161.73 409.21 160.12 406.809 158.973 404.08C157.825 401.35 157.252 398.376 157.252 395.156C157.252 393.176 157.494 391.261 157.979 389.411C158.464 387.56 159.145 385.83 160.022 384.22C160.899 382.61 161.958 381.144 163.199 379.821C164.439 378.498 165.82 377.365 167.341 376.421C168.861 375.477 170.498 374.746 172.252 374.228C174.006 373.71 175.844 373.451 177.766 373.451C179.967 373.451 181.879 373.742 183.503 374.325C185.126 374.908 186.87 375.995 188.736 377.587H195.005V386.968H186.357C185.499 385.654 184.692 384.701 183.936 384.109C183.181 383.517 182.36 383.027 181.474 382.638C180.587 382.25 179.351 382.055 177.766 382.055C176.198 382.055 174.743 382.407 173.4 383.11C172.056 383.813 170.895 384.762 169.915 385.955C168.936 387.149 168.166 388.555 167.607 390.174C167.047 391.793 166.767 393.454 166.767 395.156C166.767 396.84 167.019 398.441 167.523 399.958C168.026 401.475 168.791 402.84 169.817 404.052C170.844 405.264 172.038 406.194 173.4 406.841C174.762 407.489 176.217 407.813 177.766 407.813C179.743 407.813 181.469 407.239 182.943 406.092C184.417 404.945 185.48 403.381 186.133 401.401H178.045V393.796H197.692V416.251H189.324ZM203.485 401.762C203.485 399.671 203.867 397.71 204.632 395.878C205.397 394.046 206.461 392.445 207.823 391.076C209.185 389.707 210.808 388.624 212.692 387.829C214.577 387.033 216.648 386.635 218.905 386.635C221.163 386.635 223.238 387.033 225.132 387.829C227.026 388.624 228.654 389.707 230.016 391.076C231.378 392.445 232.436 394.046 233.192 395.878C233.948 397.71 234.325 399.671 234.325 401.762C234.325 403.853 233.957 405.819 233.22 407.66C232.483 409.501 231.438 411.111 230.085 412.49C228.733 413.868 227.11 414.955 225.216 415.751C223.322 416.547 221.219 416.945 218.905 416.945C216.573 416.945 214.46 416.547 212.566 415.751C210.672 414.955 209.054 413.873 207.711 412.504C206.367 411.134 205.327 409.529 204.59 407.688C203.853 405.847 203.485 403.872 203.485 401.762ZM211.853 401.762C211.853 402.854 212.039 403.858 212.412 404.774C212.785 405.69 213.294 406.481 213.938 407.147C214.581 407.813 215.328 408.331 216.176 408.701C217.025 409.071 217.935 409.256 218.905 409.256C219.894 409.256 220.813 409.076 221.662 408.715C222.511 408.354 223.248 407.841 223.873 407.174C224.498 406.508 224.987 405.717 225.342 404.801C225.696 403.885 225.874 402.872 225.874 401.762C225.874 400.615 225.696 399.579 225.342 398.653C224.987 397.728 224.498 396.942 223.873 396.294C223.248 395.647 222.511 395.152 221.662 394.809C220.813 394.467 219.894 394.305 218.905 394.323C217.935 394.305 217.025 394.467 216.176 394.809C215.328 395.152 214.581 395.647 213.938 396.294C213.294 396.942 212.785 397.728 212.412 398.653C212.039 399.579 211.853 400.615 211.853 401.762ZM256.826 387.496H270.539V408.646H274.038V416.251H261.752V413.808C260.763 414.696 259.606 415.381 258.281 415.862C256.957 416.343 255.427 416.584 253.692 416.584C252.087 416.584 250.576 416.334 249.158 415.834C247.74 415.335 246.504 414.581 245.45 413.572C244.396 412.564 243.565 411.301 242.959 409.784C242.353 408.266 242.05 406.481 242.05 404.427V395.101H238.271V387.496H251.089V404.427C251.089 406.351 251.583 407.79 252.572 408.743C253.561 409.696 254.849 410.172 256.434 410.172C257.554 410.172 258.571 409.83 259.485 409.145C260.399 408.46 261.061 407.535 261.472 406.37V395.101H256.826V387.496ZM304.878 397.96H297.014V394.99C296.249 394.99 295.55 395.041 294.915 395.142C294.281 395.244 293.726 395.415 293.25 395.656C292.774 395.896 292.373 396.229 292.047 396.655C291.72 397.081 291.492 397.608 291.361 398.237V408.646H297.266V416.251H278.347V408.646H282.685V395.101H278.403V387.496H291.305V389.522C292.126 388.874 293.049 388.374 294.076 388.023C295.102 387.671 296.221 387.496 297.434 387.496C298.665 387.496 299.934 387.505 301.24 387.523C302.546 387.542 303.759 387.551 304.878 387.551V397.96ZM309.972 387.496H323.237V389.994C324.431 389.05 325.775 388.3 327.267 387.745C328.76 387.19 330.299 386.913 331.885 386.913C334.086 386.913 335.975 387.297 337.552 388.065C339.129 388.832 340.365 390.003 341.26 391.576C341.876 390.891 342.571 390.267 343.345 389.702C344.119 389.138 344.945 388.647 345.822 388.231C346.699 387.815 347.618 387.491 348.579 387.26C349.539 387.028 350.524 386.913 351.531 386.913C355.076 386.913 357.8 387.884 359.703 389.827C361.606 391.77 362.558 394.61 362.558 398.348V408.646H366.672V416.251H353.434V399.764C353.434 398.135 353.01 396.859 352.161 395.933C351.312 395.008 350.132 394.546 348.621 394.546C347.576 394.546 346.592 394.791 345.668 395.281C344.744 395.771 343.826 396.618 342.911 397.821C342.93 398.024 342.939 398.232 342.939 398.445C342.939 398.658 342.939 398.875 342.939 399.098V408.646H347.137V416.251H333.9V399.708C333.9 398.931 333.779 398.228 333.536 397.599C333.293 396.97 332.958 396.433 332.529 395.989C332.099 395.545 331.591 395.198 331.003 394.948C330.416 394.698 329.767 394.564 329.058 394.546C328.125 394.527 327.16 394.731 326.162 395.156C325.164 395.582 324.207 396.368 323.293 397.515V408.646H327.939V416.251H309.916V408.646H314.226V395.101H309.972V387.496ZM378.062 403.677L378.146 404.538C378.351 405.37 378.701 406.101 379.195 406.73C379.69 407.36 380.273 407.887 380.944 408.312C381.616 408.738 382.362 409.057 383.183 409.27C384.004 409.483 384.834 409.589 385.674 409.589C386.514 409.589 387.311 409.538 388.067 409.437C388.823 409.335 389.555 409.196 390.264 409.02C390.973 408.844 391.663 408.641 392.335 408.41C393.006 408.178 393.687 407.933 394.378 407.674L397.456 413.364C396.393 414.012 395.418 414.562 394.532 415.016C393.645 415.469 392.755 415.844 391.859 416.14C390.963 416.436 390.012 416.653 389.004 416.792C387.997 416.931 386.822 417 385.478 417C382.959 417 380.721 416.588 378.762 415.765C376.802 414.941 375.156 413.827 373.822 412.42C372.488 411.014 371.471 409.367 370.771 407.48C370.072 405.592 369.722 403.594 369.722 401.485C369.722 399.375 370.09 397.395 370.827 395.545C371.564 393.694 372.605 392.08 373.948 390.701C375.291 389.323 376.896 388.236 378.762 387.44C380.627 386.644 382.698 386.247 384.974 386.247C387.251 386.247 389.27 386.621 391.033 387.371C392.797 388.12 394.284 389.156 395.497 390.479C396.71 391.802 397.643 393.357 398.296 395.142C398.949 396.928 399.303 398.848 399.359 400.902C399.415 401.364 399.448 401.822 399.457 402.276C399.467 402.729 399.453 403.196 399.415 403.677H378.062ZM384.751 393.185C383.706 393.185 382.815 393.31 382.078 393.56C381.341 393.81 380.721 394.152 380.217 394.587C379.713 395.022 379.312 395.517 379.013 396.072C378.715 396.627 378.482 397.21 378.314 397.821H390.432C390.301 397.192 390.115 396.599 389.872 396.044C389.629 395.489 389.294 394.999 388.865 394.573C388.435 394.148 387.89 393.81 387.227 393.56C386.565 393.31 385.739 393.185 384.751 393.185ZM414.948 387.496H420.741V394.768H414.892L414.836 406.925C414.836 407.628 414.892 408.197 415.003 408.632C415.115 409.066 415.279 409.413 415.493 409.673C415.708 409.932 415.964 410.107 416.263 410.2C416.561 410.292 416.907 410.339 417.298 410.339C418.007 410.339 418.632 410.269 419.173 410.13C419.714 409.992 420.256 409.83 420.797 409.645L422 415.002C421.048 415.594 419.99 416.066 418.824 416.417C417.657 416.769 416.272 416.945 414.668 416.945C413.53 416.945 412.443 416.75 411.407 416.362C410.372 415.973 409.462 415.386 408.679 414.599C407.895 413.813 407.27 412.827 406.804 411.643C406.337 410.459 406.113 409.08 406.132 407.508L406.216 394.768H402.046V387.496H406.244L406.3 380.612L415.003 376.504L414.948 387.496Z" stroke="black" stroke-width="2" mask="url(#path-1-inside-1_36_941)"/>
</g>
<mask id="mask0_36_941" style="mask-type:luminance" maskUnits="userSpaceOnUse" x="67" y="0" width="291" height="364">
<path d="M357.747 0H67.2456V363.588H357.747V0Z" fill="white"/>
</mask>
<g mask="url(#mask0_36_941)">
<mask id="mask1_36_941" style="mask-type:luminance" maskUnits="userSpaceOnUse" x="63" y="-4" width="299" height="371">
<path d="M361.095 -3.32089H63.896V366.909H361.095V-3.32089Z" fill="white"/>
</mask>
<g mask="url(#mask1_36_941)">
<path d="M67.2915 233.862C66.2502 191.367 95.1209 152.439 138.477 142.11C150.012 139.353 161.973 138.82 173.71 140.54C156.596 130.497 143.436 113.876 138.424 93.1861C128.602 52.6273 153.793 11.8459 194.688 2.10553C235.587 -7.63816 276.703 17.3454 286.528 57.9076C294.527 90.9411 279.302 124.118 251.285 140.556C298.358 133.649 343.787 163.418 355.112 210.187C356.988 217.924 357.847 225.869 357.666 233.825L357.703 233.842C357.703 233.842 362.599 297.229 270.133 355.685C281.354 339.84 285.932 319.483 281.013 299.178C275.293 275.543 258.086 257.64 236.679 249.859C255.333 239.421 265.593 217.679 260.339 195.996C253.997 169.791 227.43 153.651 201.004 159.944C174.581 166.237 158.31 192.586 164.656 218.791C167.977 232.51 176.864 243.426 188.35 249.852C155.113 261.831 135.527 296.91 143.979 331.82C146.046 340.377 149.728 348.467 154.831 355.665C62.8983 297.538 67.2413 234.543 67.2915 233.862Z" fill="#173054"/>
</g>
<mask id="mask2_36_941" style="mask-type:luminance" maskUnits="userSpaceOnUse" x="63" y="-4" width="299" height="371">
<path d="M361.095 -3.32089H63.896V366.909H361.095V-3.32089Z" fill="white"/>
</mask>
<g mask="url(#mask2_36_941)">
<path d="M174.972 309.656C174.972 308.916 175.026 308.275 175.096 307.73C175.636 297.569 184.097 289.603 194.357 289.597C202.337 289.602 209.492 294.478 212.358 301.865C215.694 293.249 224.755 288.221 233.904 289.91C243.053 291.599 249.684 299.523 249.671 308.753V308.796C249.677 309.075 249.717 309.357 249.717 309.636C249.717 309.636 251.485 340.744 212.365 363.582C212.368 363.582 212.363 363.58 212.365 363.582C173.255 340.747 174.972 309.656 174.972 309.656ZM212.365 363.582C212.378 363.572 212.512 363.482 212.747 363.313C212.619 363.396 212.492 363.502 212.365 363.582Z" fill="#225777"/>
</g>
</g>
<defs>
<filter id="filter0_d_36_941" x="0" y="373.062" width="426" height="51.9376" filterUnits="userSpaceOnUse" color-interpolation-filters="sRGB">
<feFlood flood-opacity="0" result="BackgroundImageFix"/>
<feColorMatrix in="SourceAlpha" type="matrix" values="0 0 0 0 0 0 0 0 0 0 0 0 0 0 0 0 0 0 127 0" result="hardAlpha"/>
<feOffset dy="4"/>
<feGaussianBlur stdDeviation="2"/>
<feComposite in2="hardAlpha" operator="out"/>
<feColorMatrix type="matrix" values="0 0 0 0 0 0 0 0 0 0 0 0 0 0 0 0 0 0 0.25 0"/>
<feBlend mode="normal" in2="BackgroundImageFix" result="effect1_dropShadow_36_941"/>
<feBlend mode="normal" in="SourceGraphic" in2="effect1_dropShadow_36_941" result="shape"/>
</filter>
</defs>
</svg>
